<svg xmlns="http://www.w3.org/2000/svg" viewBox="0 0 360 190" role="img" aria-label="SUV Ertiga cab illustration"><defs>
<linearGradient id="b" x1="0" y1="0" x2="0" y2="1"><stop offset="0" stop-color="#ffffff"/><stop offset="1" stop-color="#d9e3f1"/></linearGradient>
<linearGradient id="w" x1="0" y1="0" x2="0" y2="1"><stop offset="0" stop-color="#9cc4ef"/><stop offset="1" stop-color="#5d95d4"/></linearGradient>
<linearGradient id="d" x1="0" y1="0" x2="0" y2="1"><stop offset="0" stop-color="#4a5a73"/><stop offset="1" stop-color="#1f2937"/></linearGradient></defs>
<ellipse cx="180" cy="178" rx="150" ry="7" fill="#0b2a54" opacity=".13"/>
<path d="M50 98 L64 54 Q68 48 76 48 L238 48 Q248 48 255 56 L292 98 Z" fill="url(#b)" stroke="#b5c3d8" stroke-width="2" stroke-linejoin="round"/><rect x="24" y="98" width="312" height="52" rx="16" fill="url(#b)" stroke="#b5c3d8" stroke-width="2"/><rect x="28" y="120" width="304" height="6" fill="#0B4F9C" opacity=".9"/><path d="M68 92 L78 58 L116 58 L116 92 Z" fill="url(#w)" stroke="#4b7fba" stroke-width="1.5" stroke-linejoin="round"/><path d="M124 92 L124 58 L164 58 L164 92 Z" fill="url(#w)" stroke="#4b7fba" stroke-width="1.5" stroke-linejoin="round"/><path d="M172 92 L172 58 L236 58 Q241 58 245 62 L268 92 Z" fill="url(#w)" stroke="#4b7fba" stroke-width="1.5" stroke-linejoin="round"/><rect x="320" y="106" width="14" height="8" rx="3" fill="#F58220"/><rect x="26" y="106" width="9" height="8" rx="3" fill="#e5484d"/><circle cx="92" cy="150" r="25" fill="#111827"/><circle cx="92" cy="150" r="13" fill="#cbd5e1"/><circle cx="92" cy="150" r="5" fill="#64748b"/><circle cx="280" cy="150" r="25" fill="#111827"/><circle cx="280" cy="150" r="13" fill="#cbd5e1"/><circle cx="280" cy="150" r="5" fill="#64748b"/></svg>